<svg width="92" height="48" viewBox="0 0 92 48" fill="none" xmlns="http://www.w3.org/2000/svg">
<g clip-path="url(#clip0_1232_253)">
<path fill-rule="evenodd" clip-rule="evenodd" d="M8.52602 0H83.474C88.1974 0 92 3.66271 92 8.21236V37.0609C92 41.6105 88.1974 45.2732 83.474 45.2732H8.52602C3.80261 45.2732 0 41.6105 0 37.0609V8.21236C0 3.66271 3.80261 0 8.52602 0Z" fill="white"/>
<path fill-rule="evenodd" clip-rule="evenodd" d="M13.7725 16.3194H30.9633V43.0622H13.7725V16.3194Z" fill="#038141"/>
<path fill-rule="evenodd" clip-rule="evenodd" d="M63.8359 16.3194H81.0268V43.0622H63.8359V16.3194Z" fill="#E63E11"/>
<path fill-rule="evenodd" clip-rule="evenodd" d="M10.2753 16.3194H14.5678C18.1407 16.3194 21.017 19.0899 21.017 22.5313V36.8503C21.017 40.2917 18.1407 43.0622 14.5678 43.0622H10.2753C6.7025 43.0622 3.82617 40.2917 3.82617 36.8503V22.5313C3.82617 19.0899 6.7025 16.3194 10.2753 16.3194Z" fill="#038141"/>
<path fill-rule="evenodd" clip-rule="evenodd" d="M55.4189 16.3194H72.6098V43.0622H55.4189V16.3194Z" fill="#EE8100"/>
<path d="M58.5273 35.5682V23.4445H63.2252C64.2652 23.4445 65.1753 23.6039 65.9553 23.9226C66.7353 24.2414 67.3853 24.674 67.9054 25.2204C68.4372 25.7668 68.8331 26.41 69.0931 27.1499C69.365 27.8785 69.5009 28.6583 69.5009 29.4893C69.5009 30.4114 69.3531 31.2481 69.0577 31.9994C68.7622 32.7393 68.3367 33.3768 67.7813 33.9119C67.2376 34.4355 66.5758 34.8453 65.7957 35.1413C65.0275 35.4259 64.1707 35.5682 63.2252 35.5682H58.5273ZM66.5403 29.4893C66.5403 28.9542 66.4635 28.4704 66.3099 28.0379C66.168 27.5939 65.9553 27.2125 65.6717 26.8938C65.388 26.575 65.0394 26.3303 64.6257 26.1595C64.2121 25.9888 63.7452 25.9034 63.2252 25.9034H61.4347V33.1093H63.2252C63.757 33.1093 64.2298 33.0182 64.6434 32.8361C65.0571 32.654 65.3998 32.4035 65.6717 32.0848C65.9553 31.7546 66.168 31.3733 66.3099 30.9407C66.4635 30.4967 66.5403 30.0129 66.5403 29.4893Z" fill="white" fill-opacity="0.446064"/>
<path fill-rule="evenodd" clip-rule="evenodd" d="M37.2969 16.3194H55.4486V43.0622H37.2969V16.3194Z" fill="#FECB02"/>
<path fill-rule="evenodd" clip-rule="evenodd" d="M38.1782 16.3194H20.9873V43.0622H38.1782V16.3194Z" fill="#85BB2F"/>
<path d="M42.2686 29.3014C42.2686 28.5729 42.4104 27.85 42.694 27.1328C42.9777 26.4043 43.3913 25.7554 43.935 25.1862C44.4786 24.617 45.1405 24.156 45.9205 23.8031C46.7005 23.4502 47.5869 23.2737 48.5797 23.2737C49.7615 23.2737 50.7838 23.5185 51.6466 24.008C52.5211 24.4975 53.1712 25.135 53.5966 25.9205L51.3629 27.4231C51.2211 27.1044 51.0379 26.8425 50.8134 26.6376C50.6006 26.4213 50.3643 26.2506 50.1042 26.1254C49.8442 25.9888 49.5783 25.8977 49.3065 25.8522C49.0347 25.7952 48.7688 25.7668 48.5087 25.7668C47.9533 25.7668 47.4687 25.8749 47.0551 26.0912C46.6414 26.3075 46.2987 26.5864 46.0268 26.9279C45.755 27.2694 45.5541 27.6565 45.4241 28.0891C45.2941 28.5216 45.2291 28.9599 45.2291 29.4039C45.2291 29.882 45.3059 30.343 45.4596 30.787C45.6132 31.231 45.8318 31.6237 46.1155 31.9652C46.411 32.3067 46.7596 32.58 47.1614 32.7849C47.5751 32.9784 48.036 33.0751 48.5442 33.0751C48.8042 33.0751 49.0701 33.0467 49.3419 32.9898C49.6256 32.9215 49.8915 32.8247 50.1397 32.6995C50.3997 32.5629 50.6361 32.3921 50.8488 32.1872C51.0615 31.9709 51.2329 31.7091 51.3629 31.4017L53.7384 32.7507C53.5493 33.1947 53.2657 33.5931 52.8875 33.946C52.5211 34.2989 52.0957 34.5949 51.6111 34.8339C51.1265 35.073 50.6124 35.2551 50.0688 35.3804C49.5251 35.5056 48.9933 35.5682 48.4733 35.5682C47.5633 35.5682 46.7241 35.3917 45.9559 35.0388C45.1996 34.6746 44.5436 34.1964 43.9882 33.6045C43.4445 33.0125 43.019 32.3409 42.7118 31.5896C42.4163 30.8382 42.2686 30.0755 42.2686 29.3014Z" fill="white" fill-opacity="0.446064"/>
<path d="M35.7011 32.8816C35.7011 33.4052 35.5889 33.8606 35.3643 34.2476C35.1398 34.6347 34.8325 34.9591 34.4425 35.2209C34.0525 35.4714 33.5974 35.6649 33.0774 35.8015C32.5574 35.9267 32.0079 35.9893 31.4287 35.9893H25.2949V23.8657H32.2974C32.7347 23.8657 33.1306 23.9567 33.4852 24.1389C33.8397 24.321 34.1411 24.5601 34.3893 24.856C34.6375 25.1406 34.8266 25.4708 34.9566 25.8464C35.0984 26.2107 35.1693 26.5864 35.1693 26.9734C35.1693 27.554 35.0157 28.1004 34.7084 28.6127C34.4129 29.1249 33.9638 29.512 33.3611 29.7738C34.082 29.9787 34.6493 30.343 35.0629 30.8667C35.4884 31.3903 35.7011 32.062 35.7011 32.8816ZM32.7406 32.3181C32.7406 31.9424 32.6283 31.6237 32.4038 31.3619C32.1792 31.1 31.8956 30.9691 31.5528 30.9691H28.2023V33.6158H31.4287C31.8069 33.6158 32.1201 33.4963 32.3683 33.2572C32.6165 33.0182 32.7406 32.7051 32.7406 32.3181ZM28.2023 26.2562V28.7664H31.0565C31.3756 28.7664 31.6592 28.6639 31.9074 28.459C32.1556 28.2541 32.2797 27.9353 32.2797 27.5028C32.2797 27.1043 32.1674 26.797 31.9428 26.5807C31.7301 26.3644 31.4701 26.2562 31.1628 26.2562H28.2023Z" fill="white" fill-opacity="0.446064"/>
<path fill-rule="evenodd" clip-rule="evenodd" d="M28.7482 12.845H30.6105C35.7578 12.845 39.9016 16.8364 39.9016 21.7943V37.482C39.9016 42.44 35.7578 46.4314 30.6105 46.4314H28.7482C23.6009 46.4314 19.457 42.44 19.457 37.482V21.7943C19.457 16.8364 23.6009 12.845 28.7482 12.845Z" fill="#0039FF" fill-opacity="0.629738"/>
<path fill-rule="evenodd" clip-rule="evenodd" d="M28.7479 14.2368C24.3987 14.2368 20.9018 17.6051 20.9018 21.7943V37.482C20.9018 41.6712 24.3987 45.0395 28.7479 45.0395H30.6102C34.9594 45.0395 38.4563 41.6712 38.4563 37.482V21.7943C38.4563 17.6051 34.9594 14.2368 30.6102 14.2368H28.7479ZM18.0117 21.7943C18.0117 16.0676 22.8026 11.4531 28.7479 11.4531H30.6102C36.5556 11.4531 41.3464 16.0676 41.3464 21.7943V37.482C41.3464 43.2087 36.5556 47.8232 30.6102 47.8232H28.7479C22.8026 47.8232 18.0117 43.2087 18.0117 37.482V21.7943Z" fill="white"/>
<path d="M10.1647 23.4445H12.7885L17.38 35.5682H14.4017L13.4267 32.8532H9.50881L8.55151 35.5682H5.57324L10.1647 23.4445ZM12.948 30.9236L11.4766 26.6377L9.96973 30.9236H12.948Z" fill="white" fill-opacity="0.446064"/>
<path fill-rule="evenodd" clip-rule="evenodd" d="M79.0293 16.3194H83.3218C86.8946 16.3194 89.7709 19.0899 89.7709 22.5313V36.8503C89.7709 40.2917 86.8946 43.0622 83.3218 43.0622H79.0293C75.4564 43.0622 72.5801 40.2917 72.5801 36.8503V22.5313C72.5801 19.0899 75.4564 16.3194 79.0293 16.3194Z" fill="#E63E11"/>
<path d="M84.6724 33.1093V35.5682H75.8262V23.4445H84.5128V25.9034H78.7335V28.2598H83.6973V30.5309H78.7335V33.1093H84.6724Z" fill="white" fill-opacity="0.446064"/>
<path fill-rule="evenodd" clip-rule="evenodd" d="M28.7482 12.845H30.6105C35.7578 12.845 39.9016 16.8364 39.9016 21.7943V37.482C39.9016 42.44 35.7578 46.4314 30.6105 46.4314H28.7482C23.6009 46.4314 19.457 42.44 19.457 37.482V21.7943C19.457 16.8364 23.6009 12.845 28.7482 12.845Z" fill="#85BB2F"/>
<path d="M36.5948 33.8603C36.5948 34.5507 36.459 35.151 36.1874 35.6613C35.9158 36.1716 35.5442 36.5994 35.0726 36.9446C34.6009 37.2747 34.0506 37.5299 33.4217 37.71C32.7928 37.8751 32.1282 37.9576 31.4278 37.9576H24.0098V21.9736H32.4784C33.0072 21.9736 33.486 22.0936 33.9148 22.3338C34.3436 22.5739 34.7081 22.8891 35.0082 23.2793C35.3084 23.6545 35.5371 24.0898 35.6943 24.5851C35.8658 25.0653 35.9516 25.5606 35.9516 26.0709C35.9516 26.8363 35.7658 27.5567 35.3941 28.2321C35.0368 28.9075 34.4937 29.4178 33.7647 29.763C34.6366 30.0331 35.3227 30.5134 35.8229 31.2038C36.3375 31.8942 36.5948 32.7797 36.5948 33.8603ZM33.0144 33.1174C33.0144 32.6221 32.8786 32.2019 32.607 31.8567C32.3354 31.5115 31.9924 31.3389 31.5779 31.3389H27.5258V34.8284H31.4278C31.8852 34.8284 32.264 34.6708 32.5641 34.3556C32.8643 34.0404 33.0144 33.6277 33.0144 33.1174ZM27.5258 25.1254V28.4347H30.9776C31.3635 28.4347 31.7065 28.2997 32.0067 28.0295C32.3069 27.7594 32.4569 27.3391 32.4569 26.7688C32.4569 26.2435 32.3211 25.8383 32.0496 25.5531C31.7923 25.2679 31.4779 25.1254 31.1062 25.1254H27.5258Z" fill="white"/>
<path d="M7.38556 7.44144V10.9456H5.91602V4.81763H7.06297L10.0289 8.41673V4.81763H11.4985V10.9456H10.3157L7.38556 7.44144Z" fill="#7D7D7D"/>
<path d="M15.4574 9.73727C15.7083 9.73727 15.9203 9.68836 16.0936 9.59054C16.2668 9.48697 16.4072 9.35175 16.5147 9.18489C16.6222 9.01802 16.6969 8.82814 16.7387 8.61525C16.7865 8.3966 16.8104 8.17507 16.8104 7.95066V4.81763H18.2799V7.95066C18.2799 8.37646 18.2232 8.77348 18.1097 9.14173C18.0022 9.50999 17.8319 9.83221 17.5989 10.1084C17.3719 10.3846 17.0792 10.6032 16.7208 10.7643C16.3683 10.9197 15.9472 10.9974 15.4574 10.9974C14.9496 10.9974 14.5165 10.914 14.1581 10.7471C13.7996 10.5802 13.5069 10.3587 13.2799 10.0825C13.0589 9.80056 12.8946 9.47546 12.7871 9.10721C12.6855 8.73895 12.6348 8.35344 12.6348 7.95066V4.81763H14.1043V7.95066C14.1043 8.18657 14.1282 8.41098 14.176 8.62388C14.2238 8.83677 14.3014 9.02665 14.409 9.19352C14.5165 9.36038 14.6539 9.49272 14.8212 9.59054C14.9944 9.68836 15.2065 9.73727 15.4574 9.73727Z" fill="#7D7D7D"/>
<path d="M24.2577 6.06049H22.3222V10.9456H20.8527V6.06049H18.9082V4.81763H24.2577V6.06049Z" fill="#7D7D7D"/>
<path d="M24.9756 10.9456V4.81763H27.843C28.1417 4.81763 28.4165 4.87804 28.6673 4.99888C28.9242 5.11971 29.1453 5.27795 29.3304 5.47358C29.5156 5.66922 29.659 5.89074 29.7605 6.13816C29.8681 6.38558 29.9218 6.63588 29.9218 6.88906C29.9218 7.07894 29.8979 7.26306 29.8502 7.44144C29.8024 7.61406 29.7337 7.77804 29.6441 7.9334C29.5545 8.08876 29.4439 8.22973 29.3125 8.35632C29.1871 8.47715 29.0437 8.58072 28.8824 8.66703L30.2803 10.9456H28.6226L27.4039 8.96911H26.4451V10.9456H24.9756ZM26.4451 7.73489H27.7892C27.9624 7.73489 28.1118 7.65721 28.2372 7.50185C28.3627 7.34074 28.4254 7.13648 28.4254 6.88906C28.4254 6.63588 28.3537 6.43449 28.2104 6.28489C28.067 6.13529 27.9117 6.06049 27.7444 6.06049H26.4451V7.73489Z" fill="#7D7D7D"/>
<path d="M30.9785 10.9456V4.81763H32.4481V10.9456H30.9785Z" fill="#7D7D7D"/>
<path d="M33.5479 9.19354V7.95068H36.3077V9.19354H33.5479Z" fill="#7D7D7D"/>
<path d="M41.2184 6.61283C41.2004 6.58983 41.1377 6.54667 41.0302 6.48337C40.9227 6.42007 40.7883 6.3539 40.627 6.28485C40.4657 6.21581 40.2895 6.15539 40.0983 6.1036C39.9071 6.05182 39.716 6.02593 39.5248 6.02593C38.9991 6.02593 38.7363 6.19567 38.7363 6.53515C38.7363 6.63872 38.7632 6.72503 38.8169 6.79408C38.8767 6.86313 38.9603 6.92642 39.0678 6.98396C39.1813 7.03575 39.3217 7.08466 39.489 7.13069C39.6562 7.17672 39.8504 7.2285 40.0714 7.28605C40.3761 7.3666 40.6509 7.45579 40.8958 7.55361C41.1407 7.64567 41.3468 7.76363 41.5141 7.90747C41.6873 8.04557 41.8187 8.21531 41.9083 8.4167C42.0039 8.61809 42.0517 8.85975 42.0517 9.1417C42.0517 9.48694 41.983 9.78039 41.8456 10.0221C41.7142 10.258 41.538 10.4507 41.3169 10.6003C41.0959 10.7442 40.842 10.8506 40.5553 10.9197C40.2685 10.983 39.9728 11.0146 39.6682 11.0146C39.4352 11.0146 39.1963 10.9974 38.9513 10.9628C38.7064 10.9283 38.4675 10.8794 38.2345 10.8161C38.0015 10.7471 37.7745 10.6665 37.5535 10.5744C37.3384 10.4824 37.1383 10.3759 36.9531 10.2551L37.5983 9.02087C37.6222 9.04963 37.6998 9.10429 37.8313 9.18485C37.9627 9.26541 38.124 9.34596 38.3151 9.42652C38.5123 9.50707 38.7303 9.579 38.9693 9.6423C39.2082 9.70559 39.4501 9.73724 39.6951 9.73724C40.2148 9.73724 40.4746 9.58475 40.4746 9.27979C40.4746 9.16471 40.4358 9.06977 40.3582 8.99497C40.2805 8.92017 40.173 8.854 40.0356 8.79646C39.8982 8.73317 39.7339 8.67563 39.5427 8.62384C39.3576 8.57206 39.1544 8.51452 38.9334 8.45122C38.6407 8.36491 38.3868 8.27285 38.1718 8.17503C37.9567 8.07146 37.7775 7.95351 37.6341 7.82116C37.4967 7.68882 37.3922 7.53634 37.3205 7.36372C37.2548 7.1911 37.2219 6.98972 37.2219 6.75956C37.2219 6.43734 37.2847 6.15251 37.4101 5.90509C37.5356 5.65767 37.7058 5.45053 37.9209 5.28367C38.1359 5.11105 38.3838 4.98158 38.6646 4.89527C38.9513 4.80896 39.253 4.76581 39.5696 4.76581C39.7906 4.76581 40.0087 4.78595 40.2237 4.82623C40.4388 4.86651 40.6449 4.91829 40.842 4.98158C41.0392 5.04488 41.2214 5.1168 41.3886 5.19736C41.5619 5.27791 41.7202 5.35847 41.8635 5.43902L41.2184 6.61283Z" fill="#7D7D7D"/>
<path d="M42.5469 7.82981C42.5469 7.46155 42.6186 7.09618 42.7619 6.73368C42.9053 6.36542 43.1144 6.03745 43.3892 5.74975C43.664 5.46205 43.9985 5.22901 44.3928 5.05064C44.787 4.87227 45.2351 4.78308 45.7369 4.78308C46.3342 4.78308 46.851 4.90679 47.287 5.15421C47.7291 5.40163 48.0576 5.72385 48.2727 6.12088L47.1437 6.8804C47.072 6.71929 46.9794 6.58695 46.8659 6.48338C46.7584 6.37405 46.6389 6.28774 46.5075 6.22445C46.376 6.1554 46.2416 6.10937 46.1042 6.08635C45.9668 6.05759 45.8324 6.04321 45.701 6.04321C45.4202 6.04321 45.1753 6.09787 44.9662 6.2072C44.7572 6.31652 44.5839 6.45749 44.4465 6.63011C44.3091 6.80273 44.2076 6.99837 44.1419 7.21702C44.0762 7.43567 44.0433 7.65719 44.0433 7.8816C44.0433 8.12327 44.0821 8.3563 44.1598 8.5807C44.2374 8.80511 44.348 9.00362 44.4913 9.17624C44.6407 9.34886 44.8169 9.48696 45.02 9.59052C45.2291 9.68834 45.4621 9.73725 45.7189 9.73725C45.8504 9.73725 45.9848 9.72287 46.1222 9.69411C46.2655 9.65958 46.3999 9.61067 46.5254 9.54738C46.6568 9.47833 46.7763 9.39202 46.8838 9.28845C46.9913 9.17913 47.078 9.04679 47.1437 8.89143L48.3444 9.57327C48.2488 9.79768 48.1054 9.99907 47.9143 10.1774C47.7291 10.3558 47.514 10.5054 47.2691 10.6262C47.0242 10.7471 46.7643 10.8391 46.4895 10.9024C46.2147 10.9657 45.9459 10.9974 45.6831 10.9974C45.2231 10.9974 44.799 10.9082 44.4107 10.7298C44.0284 10.5457 43.6968 10.304 43.4161 10.0048C43.1413 9.70561 42.9262 9.36613 42.7709 8.98637C42.6215 8.60661 42.5469 8.22107 42.5469 7.82981Z" fill="#7D7D7D"/>
<path d="M51.7909 10.9974C51.3189 10.9974 50.8888 10.9082 50.5005 10.7298C50.1122 10.5514 49.7807 10.3184 49.5059 10.0307C49.2311 9.73724 49.0161 9.40351 48.8607 9.02951C48.7114 8.6555 48.6367 8.26998 48.6367 7.87296C48.6367 7.47018 48.7144 7.08179 48.8697 6.70778C49.031 6.33377 49.252 6.0058 49.5328 5.72385C49.8195 5.43616 50.157 5.20887 50.5453 5.04201C50.9336 4.86939 51.3578 4.78308 51.8177 4.78308C52.2897 4.78308 52.7198 4.87227 53.1081 5.05064C53.4964 5.22901 53.8279 5.46492 54.1027 5.75838C54.3775 6.05183 54.5895 6.38556 54.7389 6.75957C54.8882 7.13357 54.9629 7.51334 54.9629 7.89885C54.9629 8.30163 54.8823 8.69002 54.721 9.06403C54.5657 9.43804 54.3476 9.76889 54.0668 10.0566C53.7861 10.3385 53.4515 10.5658 53.0633 10.7384C52.675 10.9111 52.2508 10.9974 51.7909 10.9974ZM50.1331 7.89022C50.1331 8.12613 50.169 8.35629 50.2407 8.5807C50.3124 8.79935 50.4169 8.99498 50.5543 9.1676C50.6977 9.34022 50.8739 9.47831 51.083 9.58189C51.292 9.68546 51.531 9.73725 51.7998 9.73725C52.0806 9.73725 52.3255 9.68258 52.5346 9.57326C52.7437 9.46393 52.9169 9.32296 53.0543 9.15034C53.1917 8.97197 53.2932 8.77346 53.359 8.5548C53.4306 8.3304 53.4665 8.10312 53.4665 7.87296C53.4665 7.63705 53.4306 7.40977 53.359 7.19112C53.2873 6.96671 53.1797 6.77107 53.0364 6.60421C52.893 6.43159 52.7168 6.29637 52.5077 6.19856C52.3046 6.09499 52.0686 6.0432 51.7998 6.0432C51.519 6.0432 51.2741 6.09786 51.065 6.20719C50.8619 6.31076 50.6887 6.44885 50.5453 6.62147C50.4079 6.79409 50.3034 6.9926 50.2317 7.21701C50.166 7.43566 50.1331 7.66006 50.1331 7.89022Z" fill="#7D7D7D"/>
<path d="M55.8125 10.9456V4.81763H58.6799C58.9786 4.81763 59.2534 4.87804 59.5043 4.99888C59.7611 5.11971 59.9822 5.27795 60.1674 5.47358C60.3525 5.66922 60.4959 5.89074 60.5975 6.13816C60.705 6.38558 60.7588 6.63588 60.7588 6.88906C60.7588 7.07894 60.7349 7.26306 60.6871 7.44144C60.6393 7.61406 60.5706 7.77804 60.481 7.9334C60.3914 8.08876 60.2809 8.22973 60.1494 8.35632C60.024 8.47715 59.8806 8.58072 59.7193 8.66703L61.1172 10.9456H59.4595L58.2408 8.96911H57.282V10.9456H55.8125ZM57.282 7.73489H58.6261C58.7994 7.73489 58.9487 7.65721 59.0742 7.50185C59.1996 7.34074 59.2623 7.13648 59.2623 6.88906C59.2623 6.63588 59.1906 6.43449 59.0473 6.28489C58.9039 6.13529 58.7486 6.06049 58.5813 6.06049H57.282V7.73489Z" fill="#7D7D7D"/>
<path d="M66.2868 9.70274V10.9456H61.8154V4.81763H66.2061V6.06049H63.285V7.25155H65.7939V8.39947H63.285V9.70274H66.2868Z" fill="#7D7D7D"/>
</g>
<defs>
<clipPath id="clip0_1232_253">
<rect width="92" height="48" fill="white"/>
</clipPath>
</defs>
</svg>
