<?xml version="1.0" encoding="UTF-8"?>
<svg width="320" height="220" viewBox="0 0 320 220" fill="none" xmlns="http://www.w3.org/2000/svg">
  <rect width="320" height="220" rx="20" fill="#eef2ff"/>
  <path d="M220 0C210 20 200 35 180 50C150 70 120 90 110 110C90 150 140 160 160 190C170 205 175 220 175 220H220V0Z" fill="#bcd4ff" opacity="0.85"/>
  <path d="M0 160C40 150 60 135 80 120C110 100 150 90 190 110C210 120 240 150 260 160C285 175 300 200 320 210V220H0V160Z" fill="#d4e4ff" opacity="0.75"/>
  <circle cx="70" cy="70" r="6" fill="#ff4d4f" opacity="0.25"/>
  <circle cx="150" cy="60" r="5" fill="#34a853" opacity="0.25"/>
  <circle cx="220" cy="130" r="5" fill="#1a73e8" opacity="0.25"/>
  <circle cx="110" cy="150" r="5" fill="#fbbc05" opacity="0.25"/>
  <circle cx="250" cy="90" r="5" fill="#8ab4f8" opacity="0.25"/>
</svg>
