<svg width="92" height="48" viewBox="0 0 92 48" fill="none" xmlns="http://www.w3.org/2000/svg">
<g clip-path="url(#clip0_1232_256)">
<path fill-rule="evenodd" clip-rule="evenodd" d="M8.52602 0H83.474C88.1974 0 92 3.66271 92 8.21235V37.0609C92 41.6105 88.1974 45.2732 83.474 45.2732H8.52602C3.80261 45.2732 0 41.6105 0 37.0609V8.21235C0 3.66271 3.80261 0 8.52602 0Z" fill="white"/>
<path fill-rule="evenodd" clip-rule="evenodd" d="M13.7725 16.3194H30.9633V43.0622H13.7725V16.3194Z" fill="#038141"/>
<path fill-rule="evenodd" clip-rule="evenodd" d="M63.8359 16.3194H81.0268V43.0622H63.8359V16.3194Z" fill="#E63E11"/>
<path fill-rule="evenodd" clip-rule="evenodd" d="M10.2753 16.3194H14.5678C18.1407 16.3194 21.017 19.0899 21.017 22.5313V36.8503C21.017 40.2917 18.1407 43.0622 14.5678 43.0622H10.2753C6.7025 43.0622 3.82617 40.2917 3.82617 36.8503V22.5313C3.82617 19.0899 6.7025 16.3194 10.2753 16.3194Z" fill="#038141"/>
<path fill-rule="evenodd" clip-rule="evenodd" d="M55.4189 16.3194H72.6098V43.0622H55.4189V16.3194Z" fill="#EE8100"/>
<path d="M56.7979 35.5681V23.4445H61.4957C62.5358 23.4445 63.4458 23.6038 64.2258 23.9226C65.0058 24.2413 65.6558 24.6739 66.1759 25.2203C66.7077 25.7667 67.1036 26.4099 67.3636 27.1499C67.6354 27.8784 67.7714 28.6582 67.7714 29.4892C67.7714 30.4113 67.6236 31.248 67.3282 31.9993C67.0327 32.7393 66.6072 33.3768 66.0518 33.9118C65.5081 34.4355 64.8463 34.8453 64.0663 35.1413C63.298 35.4258 62.4412 35.5681 61.4957 35.5681H56.7979ZM64.8108 29.4892C64.8108 28.9542 64.734 28.4704 64.5804 28.0378C64.4385 27.5938 64.2258 27.2125 63.9422 26.8937C63.6585 26.575 63.3099 26.3302 62.8962 26.1595C62.4826 25.9887 62.0157 25.9033 61.4957 25.9033H59.7052V33.1093H61.4957C62.0276 33.1093 62.5003 33.0182 62.9139 32.836C63.3276 32.6539 63.6703 32.4035 63.9422 32.0847C64.2258 31.7546 64.4385 31.3732 64.5804 30.9406C64.734 30.4967 64.8108 30.0129 64.8108 29.4892Z" fill="white" fill-opacity="0.446064"/>
<path fill-rule="evenodd" clip-rule="evenodd" d="M37.2969 16.3194H55.4486V43.0622H37.2969V16.3194Z" fill="#FECB02"/>
<path fill-rule="evenodd" clip-rule="evenodd" d="M38.1782 16.3194H20.9873V43.0622H38.1782V16.3194Z" fill="#85BB2F"/>
<path d="M40.6377 29.3014C40.6377 28.5729 40.7795 27.85 41.0632 27.1328C41.3468 26.4043 41.7605 25.7554 42.3041 25.1862C42.8478 24.617 43.5096 24.156 44.2896 23.8031C45.0696 23.4502 45.956 23.2737 46.9488 23.2737C48.1306 23.2737 49.153 23.5185 50.0157 24.008C50.8903 24.4975 51.5403 25.135 51.9658 25.9205L49.7321 27.4231C49.5902 27.1044 49.4071 26.8425 49.1825 26.6376C48.9698 26.4213 48.7334 26.2506 48.4734 26.1254C48.2134 25.9888 47.9475 25.8977 47.6756 25.8522C47.4038 25.7952 47.1379 25.7668 46.8779 25.7668C46.3224 25.7668 45.8379 25.8749 45.4242 26.0912C45.0106 26.3075 44.6678 26.5864 44.396 26.9279C44.1242 27.2694 43.9233 27.6565 43.7932 28.0891C43.6632 28.5216 43.5982 28.9599 43.5982 29.4039C43.5982 29.882 43.6751 30.343 43.8287 30.787C43.9823 31.231 44.201 31.6237 44.4846 31.9652C44.7801 32.3067 45.1287 32.58 45.5306 32.7849C45.9442 32.9784 46.4051 33.0751 46.9133 33.0751C47.1733 33.0751 47.4393 33.0467 47.7111 32.9898C47.9947 32.9215 48.2607 32.8247 48.5088 32.6995C48.7688 32.5629 49.0052 32.3921 49.218 32.1872C49.4307 31.9709 49.6021 31.7091 49.7321 31.4017L52.1076 32.7507C51.9185 33.1947 51.6348 33.5931 51.2567 33.946C50.8903 34.2989 50.4648 34.5949 49.9802 34.8339C49.4957 35.073 48.9816 35.2551 48.4379 35.3804C47.8943 35.5056 47.3624 35.5682 46.8424 35.5682C45.9324 35.5682 45.0933 35.3917 44.3251 35.0388C43.5687 34.6746 42.9128 34.1964 42.3573 33.6045C41.8136 33.0125 41.3882 32.3409 41.0809 31.5896C40.7854 30.8382 40.6377 30.0755 40.6377 29.3014Z" fill="white" fill-opacity="0.446064"/>
<path d="M35.7011 32.4604C35.7011 32.984 35.5889 33.4394 35.3643 33.8264C35.1398 34.2135 34.8325 34.5379 34.4425 34.7997C34.0525 35.0502 33.5974 35.2437 33.0774 35.3803C32.5574 35.5055 32.0079 35.5681 31.4287 35.5681H25.2949V23.4445H32.2974C32.7347 23.4445 33.1306 23.5355 33.4852 23.7177C33.8397 23.8998 34.1411 24.1389 34.3893 24.4348C34.6375 24.7194 34.8266 25.0496 34.9566 25.4252C35.0984 25.7895 35.1693 26.1652 35.1693 26.5522C35.1693 27.1328 35.0157 27.6792 34.7084 28.1915C34.4129 28.7037 33.9638 29.0908 33.3611 29.3526C34.082 29.5575 34.6493 29.9218 35.0629 30.4455C35.4884 30.9691 35.7011 31.6408 35.7011 32.4604ZM32.7406 31.8969C32.7406 31.5212 32.6283 31.2025 32.4038 30.9406C32.1792 30.6788 31.8956 30.5479 31.5528 30.5479H28.2023V33.1946H31.4287C31.8069 33.1946 32.1201 33.0751 32.3683 32.836C32.6165 32.597 32.7406 32.2839 32.7406 31.8969ZM28.2023 25.835V28.3452H31.0565C31.3756 28.3452 31.6592 28.2427 31.9074 28.0378C32.1556 27.8329 32.2797 27.5141 32.2797 27.0816C32.2797 26.6831 32.1674 26.3758 31.9428 26.1595C31.7301 25.9432 31.4701 25.835 31.1628 25.835H28.2023Z" fill="white" fill-opacity="0.446064"/>
<path fill-rule="evenodd" clip-rule="evenodd" d="M79.3175 12.845H81.1798C86.3271 12.845 90.471 16.8364 90.471 21.7943V37.482C90.471 42.44 86.3271 46.4314 81.1798 46.4314H79.3175C74.1702 46.4314 70.0264 42.44 70.0264 37.482V21.7943C70.0264 16.8364 74.1702 12.845 79.3175 12.845Z" fill="#0039FF" fill-opacity="0.629738"/>
<path fill-rule="evenodd" clip-rule="evenodd" d="M79.3173 14.2368C74.968 14.2368 71.4711 17.6051 71.4711 21.7943V37.482C71.4711 41.6712 74.968 45.0395 79.3173 45.0395H81.1795C85.5288 45.0395 89.0257 41.6712 89.0257 37.482V21.7943C89.0257 17.6051 85.5288 14.2368 81.1795 14.2368H79.3173ZM68.5811 21.7943C68.5811 16.0676 73.3719 11.4531 79.3173 11.4531H81.1795C87.1249 11.4531 91.9157 16.0676 91.9157 21.7943V37.482C91.9157 43.2087 87.1249 47.8232 81.1795 47.8232H79.3173C73.3719 47.8232 68.5811 43.2087 68.5811 37.482V21.7943Z" fill="white"/>
<path d="M10.1647 23.4445H12.7885L17.38 35.5681H14.4017L13.4267 32.8531H9.50881L8.55151 35.5681H5.57324L10.1647 23.4445ZM12.948 30.9236L11.4766 26.6376L9.96973 30.9236H12.948Z" fill="white" fill-opacity="0.446064"/>
<path fill-rule="evenodd" clip-rule="evenodd" d="M79.0293 16.3194H83.3218C86.8946 16.3194 89.7709 19.0899 89.7709 22.5313V36.8503C89.7709 40.2917 86.8946 43.0622 83.3218 43.0622H79.0293C75.4564 43.0622 72.5801 40.2917 72.5801 36.8503V22.5313C72.5801 19.0899 75.4564 16.3194 79.0293 16.3194Z" fill="#E63E11"/>
<path d="M84.6724 33.1093V35.5681H75.8262V23.4445H84.5128V25.9033H78.7335V28.2598H83.6973V30.5308H78.7335V33.1093H84.6724Z" fill="white" fill-opacity="0.446064"/>
<path fill-rule="evenodd" clip-rule="evenodd" d="M79.3175 12.845H81.1798C86.3271 12.845 90.471 16.8364 90.471 21.7943V37.482C90.471 42.44 86.3271 46.4314 81.1798 46.4314H79.3175C74.1702 46.4314 70.0264 42.44 70.0264 37.482V21.7943C70.0264 16.8364 74.1702 12.845 79.3175 12.845Z" fill="#E63E11"/>
<path d="M84.6544 34.7158V37.9576H73.9561V21.9736H84.4614V25.2154H77.4721V28.3222H83.4752V31.3164H77.4721V34.7158H84.6544Z" fill="white"/>
<path d="M7.38556 7.44143V10.9456H5.91602V4.81763H7.06297L10.0289 8.41673V4.81763H11.4985V10.9456H10.3157L7.38556 7.44143Z" fill="#7D7D7D"/>
<path d="M15.4574 9.73726C15.7083 9.73726 15.9203 9.68836 16.0936 9.59054C16.2668 9.48697 16.4072 9.35175 16.5147 9.18489C16.6222 9.01802 16.6969 8.82814 16.7387 8.61524C16.7865 8.39659 16.8104 8.17506 16.8104 7.95066V4.81763H18.2799V7.95066C18.2799 8.37645 18.2232 8.77348 18.1097 9.14173C18.0022 9.50998 17.8319 9.8322 17.5989 10.1084C17.3719 10.3846 17.0792 10.6032 16.7208 10.7643C16.3683 10.9197 15.9472 10.9974 15.4574 10.9974C14.9496 10.9974 14.5165 10.914 14.1581 10.7471C13.7996 10.5802 13.5069 10.3587 13.2799 10.0825C13.0589 9.80056 12.8946 9.47546 12.7871 9.1072C12.6855 8.73895 12.6348 8.35343 12.6348 7.95066V4.81763H14.1043V7.95066C14.1043 8.18657 14.1282 8.41098 14.176 8.62387C14.2238 8.83677 14.3014 9.02665 14.409 9.19351C14.5165 9.36038 14.6539 9.49272 14.8212 9.59054C14.9944 9.68836 15.2065 9.73726 15.4574 9.73726Z" fill="#7D7D7D"/>
<path d="M24.2577 6.06048H22.3222V10.9456H20.8527V6.06048H18.9082V4.81763H24.2577V6.06048Z" fill="#7D7D7D"/>
<path d="M24.9756 10.9456V4.81763H27.843C28.1417 4.81763 28.4165 4.87804 28.6673 4.99888C28.9242 5.11971 29.1453 5.27794 29.3304 5.47358C29.5156 5.66921 29.659 5.89074 29.7605 6.13816C29.8681 6.38558 29.9218 6.63588 29.9218 6.88905C29.9218 7.07893 29.8979 7.26306 29.8502 7.44143C29.8024 7.61405 29.7337 7.77804 29.6441 7.9334C29.5545 8.08875 29.4439 8.22973 29.3125 8.35631C29.1871 8.47715 29.0437 8.58072 28.8824 8.66703L30.2803 10.9456H28.6226L27.4039 8.96911H26.4451V10.9456H24.9756ZM26.4451 7.73489H27.7892C27.9624 7.73489 28.1118 7.65721 28.2372 7.50185C28.3627 7.34074 28.4254 7.13647 28.4254 6.88905C28.4254 6.63588 28.3537 6.43449 28.2104 6.28489C28.067 6.13528 27.9117 6.06048 27.7444 6.06048H26.4451V7.73489Z" fill="#7D7D7D"/>
<path d="M30.9785 10.9456V4.81763H32.4481V10.9456H30.9785Z" fill="#7D7D7D"/>
<path d="M33.5479 9.19354V7.95068H36.3077V9.19354H33.5479Z" fill="#7D7D7D"/>
<path d="M41.2184 6.61283C41.2004 6.58983 41.1377 6.54667 41.0302 6.48337C40.9227 6.42007 40.7883 6.3539 40.627 6.28486C40.4657 6.21581 40.2895 6.15539 40.0983 6.10361C39.9071 6.05182 39.716 6.02593 39.5248 6.02593C38.9991 6.02593 38.7363 6.19567 38.7363 6.53515C38.7363 6.63872 38.7632 6.72503 38.8169 6.79408C38.8767 6.86313 38.9603 6.92642 39.0678 6.98396C39.1813 7.03575 39.3217 7.08466 39.489 7.13069C39.6562 7.17672 39.8504 7.22851 40.0714 7.28605C40.3761 7.3666 40.6509 7.45579 40.8958 7.55361C41.1407 7.64567 41.3468 7.76363 41.5141 7.90747C41.6873 8.04557 41.8187 8.21531 41.9083 8.4167C42.0039 8.61809 42.0517 8.85976 42.0517 9.1417C42.0517 9.48694 41.983 9.78039 41.8456 10.0221C41.7142 10.258 41.538 10.4507 41.3169 10.6003C41.0959 10.7442 40.842 10.8506 40.5553 10.9197C40.2685 10.983 39.9728 11.0146 39.6682 11.0146C39.4352 11.0146 39.1963 10.9974 38.9513 10.9628C38.7064 10.9283 38.4675 10.8794 38.2345 10.8161C38.0015 10.7471 37.7745 10.6665 37.5535 10.5744C37.3384 10.4824 37.1383 10.3759 36.9531 10.2551L37.5983 9.02087C37.6222 9.04963 37.6998 9.1043 37.8313 9.18486C37.9627 9.26541 38.124 9.34596 38.3151 9.42652C38.5123 9.50708 38.7303 9.579 38.9693 9.6423C39.2082 9.70559 39.4501 9.73724 39.6951 9.73724C40.2148 9.73724 40.4746 9.58475 40.4746 9.27979C40.4746 9.16471 40.4358 9.06977 40.3582 8.99498C40.2805 8.92017 40.173 8.854 40.0356 8.79646C39.8982 8.73317 39.7339 8.67563 39.5427 8.62384C39.3576 8.57206 39.1544 8.51452 38.9334 8.45122C38.6407 8.36491 38.3868 8.27285 38.1718 8.17503C37.9567 8.07146 37.7775 7.95351 37.6341 7.82116C37.4967 7.68882 37.3922 7.53635 37.3205 7.36373C37.2548 7.19111 37.2219 6.98972 37.2219 6.75956C37.2219 6.43734 37.2847 6.15251 37.4101 5.90509C37.5356 5.65767 37.7058 5.45053 37.9209 5.28367C38.1359 5.11105 38.3838 4.98158 38.6646 4.89527C38.9513 4.80896 39.253 4.76581 39.5696 4.76581C39.7906 4.76581 40.0087 4.78595 40.2237 4.82623C40.4388 4.86651 40.6449 4.91829 40.842 4.98158C41.0392 5.04488 41.2214 5.1168 41.3886 5.19736C41.5619 5.27791 41.7202 5.35847 41.8635 5.43902L41.2184 6.61283Z" fill="#7D7D7D"/>
<path d="M42.5469 7.82981C42.5469 7.46155 42.6186 7.09618 42.7619 6.73368C42.9053 6.36542 43.1144 6.03745 43.3892 5.74975C43.664 5.46205 43.9985 5.22901 44.3928 5.05064C44.787 4.87227 45.2351 4.78308 45.7369 4.78308C46.3342 4.78308 46.851 4.90679 47.287 5.15421C47.7291 5.40163 48.0576 5.72385 48.2727 6.12088L47.1437 6.8804C47.072 6.71929 46.9794 6.58695 46.8659 6.48338C46.7584 6.37405 46.6389 6.28774 46.5075 6.22445C46.376 6.1554 46.2416 6.10937 46.1042 6.08635C45.9668 6.05759 45.8324 6.04321 45.701 6.04321C45.4202 6.04321 45.1753 6.09787 44.9662 6.2072C44.7572 6.31652 44.5839 6.45749 44.4465 6.63011C44.3091 6.80273 44.2076 6.99837 44.1419 7.21702C44.0762 7.43567 44.0433 7.65719 44.0433 7.8816C44.0433 8.12327 44.0821 8.3563 44.1598 8.58071C44.2374 8.80511 44.348 9.00362 44.4913 9.17624C44.6407 9.34886 44.8169 9.48696 45.02 9.59053C45.2291 9.68835 45.4621 9.73725 45.7189 9.73725C45.8504 9.73725 45.9848 9.72287 46.1222 9.69411C46.2655 9.65958 46.3999 9.61068 46.5254 9.54738C46.6568 9.47833 46.7763 9.39202 46.8838 9.28845C46.9913 9.17913 47.078 9.04679 47.1437 8.89143L48.3444 9.57328C48.2488 9.79768 48.1054 9.99907 47.9143 10.1774C47.7291 10.3558 47.514 10.5054 47.2691 10.6263C47.0242 10.7471 46.7643 10.8391 46.4895 10.9024C46.2147 10.9657 45.9459 10.9974 45.6831 10.9974C45.2231 10.9974 44.799 10.9082 44.4107 10.7298C44.0284 10.5457 43.6968 10.304 43.4161 10.0048C43.1413 9.70562 42.9262 9.36613 42.7709 8.98637C42.6215 8.60661 42.5469 8.22107 42.5469 7.82981Z" fill="#7D7D7D"/>
<path d="M51.7909 10.9974C51.3189 10.9974 50.8888 10.9082 50.5005 10.7298C50.1122 10.5514 49.7807 10.3184 49.5059 10.0307C49.2311 9.73725 49.0161 9.40352 48.8607 9.02951C48.7114 8.6555 48.6367 8.26999 48.6367 7.87296C48.6367 7.47018 48.7144 7.08179 48.8697 6.70778C49.031 6.33378 49.252 6.0058 49.5328 5.72385C49.8195 5.43616 50.157 5.20887 50.5453 5.04201C50.9336 4.86939 51.3578 4.78308 51.8177 4.78308C52.2897 4.78308 52.7198 4.87227 53.1081 5.05064C53.4964 5.22901 53.8279 5.46493 54.1027 5.75838C54.3775 6.05183 54.5895 6.38556 54.7389 6.75957C54.8882 7.13358 54.9629 7.51334 54.9629 7.89885C54.9629 8.30163 54.8823 8.69002 54.721 9.06403C54.5657 9.43804 54.3476 9.76889 54.0668 10.0566C53.7861 10.3385 53.4515 10.5658 53.0633 10.7384C52.675 10.9111 52.2508 10.9974 51.7909 10.9974ZM50.1331 7.89022C50.1331 8.12613 50.169 8.35629 50.2407 8.5807C50.3124 8.79935 50.4169 8.99498 50.5543 9.1676C50.6977 9.34022 50.8739 9.47831 51.083 9.58189C51.292 9.68546 51.531 9.73725 51.7998 9.73725C52.0806 9.73725 52.3255 9.68258 52.5346 9.57326C52.7437 9.46393 52.9169 9.32296 53.0543 9.15034C53.1917 8.97197 53.2932 8.77346 53.359 8.5548C53.4306 8.3304 53.4665 8.10312 53.4665 7.87296C53.4665 7.63705 53.4306 7.40977 53.359 7.19112C53.2873 6.96671 53.1797 6.77107 53.0364 6.60421C52.893 6.43159 52.7168 6.29637 52.5077 6.19856C52.3046 6.09499 52.0686 6.0432 51.7998 6.0432C51.519 6.0432 51.2741 6.09786 51.065 6.20719C50.8619 6.31076 50.6887 6.44885 50.5453 6.62147C50.4079 6.79409 50.3034 6.99261 50.2317 7.21701C50.166 7.43566 50.1331 7.66006 50.1331 7.89022Z" fill="#7D7D7D"/>
<path d="M55.8125 10.9456V4.81763H58.6799C58.9786 4.81763 59.2534 4.87804 59.5043 4.99888C59.7611 5.11971 59.9822 5.27794 60.1674 5.47358C60.3525 5.66921 60.4959 5.89074 60.5975 6.13816C60.705 6.38558 60.7588 6.63588 60.7588 6.88905C60.7588 7.07893 60.7349 7.26306 60.6871 7.44143C60.6393 7.61405 60.5706 7.77804 60.481 7.9334C60.3914 8.08875 60.2809 8.22973 60.1494 8.35631C60.024 8.47715 59.8806 8.58072 59.7193 8.66703L61.1172 10.9456H59.4595L58.2408 8.96911H57.282V10.9456H55.8125ZM57.282 7.73489H58.6261C58.7994 7.73489 58.9487 7.65721 59.0742 7.50185C59.1996 7.34074 59.2623 7.13647 59.2623 6.88905C59.2623 6.63588 59.1906 6.43449 59.0473 6.28489C58.9039 6.13528 58.7486 6.06048 58.5813 6.06048H57.282V7.73489Z" fill="#7D7D7D"/>
<path d="M66.2868 9.70274V10.9456H61.8154V4.81763H66.2061V6.06048H63.285V7.25155H65.7939V8.39947H63.285V9.70274H66.2868Z" fill="#7D7D7D"/>
</g>
<defs>
<clipPath id="clip0_1232_256">
<rect width="92" height="48" fill="white"/>
</clipPath>
</defs>
</svg>
